<svg width="24" height="24" viewBox="0 0 24 24" fill="none" xmlns="http://www.w3.org/2000/svg">
<path d="M8.1 13.34L2.91 8.75C2.49 8.37 2.49 7.69 2.91 7.31L7.27 3.44C7.68 3.07 8.32 3.07 8.73 3.44L13.09 7.31C13.51 7.69 13.51 8.37 13.09 8.75L8.1 13.34Z" fill="#666666"/>
<path d="M18.88 12.07L14.17 16.78C13.78 17.17 13.15 17.17 12.76 16.78L8.94 12.96L12.64 9.26L18.88 12.07Z" fill="#666666"/>
<path d="M21.32 15.89L19.35 13.93L13.11 11.12L15.93 13.94L19.32 17.33C19.71 17.72 20.34 17.72 20.73 17.33L21.31 16.75C21.7 16.36 21.7 15.72 21.31 15.33L21.32 15.89Z" fill="#666666"/>
</svg>